<?xml version="1.0" encoding="utf-8"?>
<!-- Generator: Adobe Illustrator 27.4.1, SVG Export Plug-In . SVG Version: 6.00 Build 0)  -->
<svg version="1.1" xmlns="http://www.w3.org/2000/svg" xmlns:xlink="http://www.w3.org/1999/xlink" x="0px" y="0px"
	 viewBox="0 0 1280 899.87" style="enable-background:new 0 0 1280 899.87;" xml:space="preserve">
<style type="text/css">
	.st0{fill:#B6C9DB;}
	.st1{fill:#F2E8DC;}
	.st2{fill:#DAB78A;}
</style>
<g id="background">
	<rect class="st0" width="1280" height="899.87"/>
</g>
<g id="Layer_1">
	<g>
		<path class="st0" d="M365.26,470.83c-27.89,0-55.77,0-83.66,0c-0.09-0.45-0.11-0.91-0.27-1.33c-1.7-4.43-4.58-8.21-6.85-12.33
			c-1.19-2.16-2.83-4.12-4.1-6.29c-1.84-3.16-4.16-5.99-6.3-8.94c-2.91-4.01-5.89-7.98-9.21-11.6
			c-5.23-5.71-10.21-11.65-16.05-16.83c-4.49-3.99-8.88-8.06-13.88-11.4c-2.2-1.47-4.51-2.79-6.56-4.48
			c-1.3-1.07-2.97-1.47-4.41-2.33c-3.13-1.87-6.29-3.73-9.61-5.22c-7.15-3.2-14.48-5.91-22.24-7.34
			c-6.29-1.16-12.58-2.02-18.99-2.01c-4.27,0.01-8.48,0.36-12.72,0.87c-5.95,0.71-11.76,2.03-17.22,4.27
			c-7.29,2.98-14.55,6.22-20.89,11.06c-1.24,0.95-2.87,1.11-4.02,2.13c-2.9,2.57-5.95,4.94-9.1,7.21c-3.38,2.44-6.48,5.29-9.52,8.14
			c-5.33,4.99-10.58,10.08-15.79,15.2c-7.15,7.03-13.92,14.43-21.26,21.27c-6.34,5.9-12.38,12.15-19.6,17.05
			c-0.99,0.67-1.99,1.48-1.91,2.92c-10.35,0-20.7,0-31.09,0c0-68.11,0-136.23,0-204.34c1.32-0.28,2.12,0.52,2.95,1.36
			c5.45,5.53,10.8,11.17,16.95,15.93c7.83,6.06,16.03,11.58,24.8,16.21c10.45,5.52,21.3,10.07,32.66,13.43
			c10.81,3.19,21.73,5.72,32.93,7.14c6.11,0.78,12.25,1.39,18.37,1.58c7.82,0.24,15.66,0.32,23.51-0.21
			c6.3-0.42,12.55-1.12,18.79-1.98c3.16-0.43,6.34-0.85,9.43-1.59c4.65-1.12,9.35-2.06,13.99-3.25c6.72-1.73,13.3-3.85,19.84-6.1
			c5.96-2.05,11.85-4.33,17.68-6.78c5.95-2.5,11.88-5.04,17.7-7.85c2.73-1.32,5.51-2.53,8.19-3.95c3.02-1.6,5.89-3.48,8.93-5.04
			c5.01-2.59,9.69-5.71,14.48-8.63c2.92-1.78,5.62-3.9,8.5-5.74c5.45-3.48,10.58-7.4,15.5-11.55c5.92-4.98,11.83-10.02,17.16-15.67
			c1.52-1.61,3.5-2.7,4.88-4.45c2.54-3.22,5.52-6.05,7.99-9.33c2.65-3.52,5.52-6.87,7.54-10.83c3.68-7.2,6.61-14.65,8.14-22.64
			c0.71-3.72,1.56-7.42,2.27-11.14c0.72-3.71,0.91-7.54,1.03-11.33c0.23-7.76,0.09-15.51-0.84-23.24c45.71,0,91.43,0,137.14,0
			c0.74,1.43,2.23,1.14,3.39,1.3c4.81,0.64,9.53,1.86,14.42,2.07c3.33,0.14,6.63,0.8,9.98,0.77c4.42-0.04,8.83-0.02,13.25-0.04
			c0.68,0,1.37-0.01,2.05-0.08c6.11-0.69,12.21-1.42,18.23-2.71c0.86-0.18,1.87-0.21,2.22-1.3c51.5,0,103.01,0,154.51,0
			c-0.11,0.87,0.04,1.66,0.7,2.31c1.32,1.31,2.09,2.98,2.93,4.6c0.6,1.15,1.2,2.29,1.83,3.42c2.29,4.13,5,7.98,7.73,11.84
			c4.79,6.78,9.75,13.4,15.61,19.31c2.3,2.32,4.51,4.72,6.97,6.86c4.13,3.58,7.92,7.56,12.59,10.49c0.83,0.52,1.62,1.14,2.35,1.81
			c2.43,2.21,5.26,3.93,7.99,5.64c4.56,2.85,9.27,5.51,14.13,7.88c5.39,2.64,10.69,5.43,16.46,7.27c3.25,1.04,6.38,2.47,9.66,3.46
			c2.62,0.79,5.19,1.94,7.87,2.33c3.1,0.45,5.85,2.2,9.04,2.14c4.3,1.97,9.06,1.81,13.58,2.82c3.73,0.83,7.64,1.16,11.49,1.52
			c4.3,0.4,8.63,0.69,12.94,0.81c6.22,0.19,12.45,0.41,18.69-0.23c4.28-0.44,8.61,0.01,12.91-0.96c5.02-1.13,10.34-0.34,15.28-2.22
			c0.34-0.13,0.75-0.12,1.13-0.11c1.31,0.03,2.56-0.26,3.81-0.65c1.31-0.42,2.68-0.55,4.01-0.87c4.49-1.07,9.11-1.62,13.36-3.57
			c0.63-0.29,1.31-0.4,2-0.4c0.69,0.01,1.34-0.2,2-0.36c3.03-0.75,5.94-1.84,8.86-2.89c3.72-1.34,7.53-2.41,11.19-3.94
			c3.58-1.5,7.17-2.95,10.78-4.38c4.95-1.96,9.82-4.08,14.61-6.37c8.24-3.94,16.2-8.38,24.15-12.87c6.5-3.67,12.37-8.33,18.95-11.87
			c0.39-0.21,0.69-0.59,1.04-0.89c2.68-2.25,5.4-4.44,8.37-6.3c0.71-0.44,1.49-0.85,2.05-1.44c3.97-4.23,8.92-7.34,13.05-11.41
			c2.04-2.02,4.25-3.89,6.31-5.91c1.41-1.38,3-2.58,4.31-4.06c2.97-3.36,5.88-6.78,8.83-10.15c0.68-0.78,1.13-1.62,1.14-2.66
			c70.25,0,140.5,0,210.74,0c0,37.94,0,75.89,0,113.83c-0.94,0.1-1.57-0.41-2.18-1.03c-1.17-1.2-2.4-2.35-3.53-3.57
			c-3.01-3.24-6.37-6.14-9.88-8.75c-3.39-2.52-6.87-4.97-10.51-7.19c-6.11-3.74-12.41-7.03-19.02-9.75
			c-4.5-1.85-9.05-3.58-13.63-5.21c-5.24-1.86-10.63-3.19-16.03-4.49c-7.92-1.91-15.92-3.25-23.97-4.38
			c-4.36-0.61-8.77-0.9-13.12-1.47c-4.84-0.63-9.7-1.02-14.53-1.12c-12.61-0.27-25.24-0.5-37.82,1.17
			c-5.28,0.7-10.52,1.54-15.72,2.59c-6.57,1.32-12.98,3.24-19.3,5.46c-9.52,3.34-18.52,7.74-26.91,13.32
			c-3.73,2.48-7.48,4.92-10.86,7.92c-7.88,7-15.13,14.52-20.95,23.37c-5.66,8.61-9.73,17.88-11.99,27.93
			c-1.07,4.74-2.15,9.48-2.06,14.4c0.08,4.34-0.11,8.69,0.1,13.02c0.14,2.78,0.28,5.6,1.05,8.34c0.43,1.52,0.79,3.1,1.04,4.65
			c0.81,5.13,2.34,10.07,4.09,14.92c2.27,6.29,4.9,12.43,8.13,18.31c4.29,7.79,8.93,15.33,14.19,22.53
			c3.9,5.35,8.26,10.3,12.72,15.12c4.59,4.95,9.38,9.75,14.47,14.25c3.75,3.32,7.49,6.64,11.3,9.89c5.59,4.79,11.32,9.4,17.2,13.81
			c5.89,4.41,11.84,8.73,17.79,13.05c3.07,2.22,6.21,4.34,9.31,6.52c0.93,0.65,1.98,1.22,2.01,2.58c-35.05,0-70.1,0-105.14,0
			c-0.12-0.78-0.77-1.13-1.34-1.46c-3.73-2.19-7.19-4.8-10.85-7.09c-4.83-3.02-9.76-5.88-14.79-8.56
			c-9.61-5.12-19.46-9.74-29.54-13.84c-13.37-5.44-26.95-10.36-40.64-14.94c-15.22-5.09-30.45-10.13-45.58-15.46
			c-7.39-2.61-14.69-5.42-21.99-8.26c-5.31-2.07-10.52-4.38-15.71-6.74c-3.87-1.76-7.63-3.76-11.44-5.65
			c-2.18-1.08-4.22-2.41-6.37-3.52c-2.08-1.08-4.21-2.13-6.23-3.3c-8.4-4.89-16.32-10.48-24.06-16.38
			c-6.43-4.91-12.08-10.62-18.07-15.98c-3.57-3.2-6.52-7.01-9.89-10.42c-1.37-1.39-2.71-2.87-3.98-4.37
			c-2.83-3.37-5.54-6.83-8.42-10.15c-4.43-5.1-8.53-10.47-12.7-15.78c-2.62-3.34-5.13-6.78-7.74-10.13
			c-5.36-6.89-10.69-13.79-16.15-20.6c-3.32-4.14-6.63-8.3-10.2-12.25c-2.29-2.53-4.37-5.24-6.73-7.73
			c-2.51-2.64-4.8-5.49-7.35-8.09c-3.45-3.54-6.9-7.08-10.68-10.28c-0.92-0.78-1.48-2.03-2.46-2.66c-2.64-1.67-4.86-3.85-7.32-5.73
			c-3.44-2.62-6.73-5.45-10.34-7.81c-6.66-4.38-13.48-8.5-20.75-11.85c-5.32-2.46-10.7-4.73-16.2-6.73
			c-10.6-3.86-21.68-5.76-32.69-7.92c-5.42-1.06-11-1.45-16.55-1.45c-7.83,0-15.67-0.31-23.5,0.38c-3.86,0.34-7.7,0.82-11.55,1.2
			c-3.48,0.34-6.84,1.3-10.27,1.91c-8.23,1.48-16.32,3.46-24.34,5.87c-8.76,2.64-17.34,5.75-25.61,9.58
			c-7.85,3.64-15.7,7.31-22.99,12.1c-3.92,2.58-8.05,4.88-11.94,7.52c-9.57,6.49-18.68,13.59-27.53,21.04
			c-5.65,4.76-10.92,9.92-16.43,14.82c-4.15,3.7-7.71,8-11.54,12.03c-1.67,1.76-3.38,3.5-4.93,5.38c-3.34,4.04-6.74,8.04-9.96,12.17
			c-4.12,5.27-8.22,10.59-11.78,16.25c-3.36,5.33-6.84,10.59-9.79,16.19c-2.84,5.39-5.49,10.86-7.96,16.43
			c-1.17,2.64-2.23,5.35-3.09,8.1c-2.05,6.58-2.69,13.4-2.96,20.24c-0.19,4.86,0.29,9.71,0.84,14.54
			c0.97,8.57,2.97,16.93,5.62,25.09c4,12.31,8.79,24.3,15.15,35.63c2.94,5.24,5.8,10.52,9.13,15.53
			C364.68,468.63,365.34,469.6,365.26,470.83z"/>
		<path class="st1" d="M365.26,470.83c0.08-1.23-0.58-2.21-1.2-3.14c-3.33-5.01-6.18-10.29-9.13-15.53
			c-6.36-11.33-11.14-23.32-15.15-35.63c-2.66-8.17-4.65-16.52-5.62-25.09c-0.55-4.83-1.03-9.68-0.84-14.54
			c0.27-6.84,0.91-13.66,2.96-20.24c0.86-2.75,1.92-5.46,3.09-8.1c2.46-5.56,5.12-11.03,7.96-16.43c2.95-5.6,6.43-10.86,9.79-16.19
			c3.56-5.66,7.66-10.98,11.78-16.25c3.23-4.13,6.62-8.13,9.96-12.17c1.55-1.88,3.26-3.62,4.93-5.38
			c3.82-4.03,7.38-8.33,11.54-12.03c5.5-4.91,10.77-10.06,16.43-14.82c8.85-7.45,17.95-14.55,27.53-21.04
			c3.9-2.64,8.02-4.94,11.94-7.52c7.29-4.79,15.14-8.46,22.99-12.1c8.27-3.84,16.85-6.95,25.61-9.58c8.01-2.41,16.1-4.39,24.34-5.87
			c3.42-0.62,6.79-1.57,10.27-1.91c3.85-0.38,7.69-0.86,11.55-1.2c7.83-0.69,15.67-0.38,23.5-0.38c5.55,0,11.13,0.39,16.55,1.45
			c11,2.16,22.09,4.06,32.69,7.92c5.5,2,10.88,4.27,16.2,6.73c7.27,3.36,14.09,7.48,20.75,11.85c3.6,2.37,6.9,5.19,10.34,7.81
			c2.46,1.88,4.68,4.05,7.32,5.73c0.98,0.62,1.55,1.88,2.46,2.66c3.78,3.2,7.23,6.75,10.68,10.28c2.54,2.6,4.84,5.45,7.35,8.09
			c2.36,2.48,4.44,5.19,6.73,7.73c3.56,3.95,6.87,8.11,10.2,12.25c5.46,6.8,10.79,13.71,16.15,20.6c2.61,3.35,5.11,6.79,7.74,10.13
			c4.17,5.31,8.27,10.68,12.7,15.78c2.88,3.32,5.59,6.79,8.42,10.15c1.27,1.51,2.61,2.99,3.98,4.37c3.37,3.41,6.32,7.22,9.89,10.42
			c5.99,5.36,11.64,11.08,18.07,15.98c7.74,5.9,15.65,11.5,24.06,16.38c2.02,1.18,4.15,2.22,6.23,3.3c2.14,1.11,4.19,2.45,6.37,3.52
			c3.81,1.89,7.57,3.89,11.44,5.65c5.19,2.36,10.4,4.67,15.71,6.74c7.3,2.84,14.6,5.65,21.99,8.26
			c15.13,5.34,30.37,10.37,45.58,15.46c13.69,4.58,27.27,9.5,40.64,14.94c10.08,4.1,19.94,8.72,29.54,13.84
			c5.02,2.68,9.96,5.54,14.79,8.56c3.66,2.29,7.11,4.91,10.85,7.09c0.58,0.34,1.22,0.68,1.34,1.46c-40.38,0-80.76,0-121.14,0
			c-0.09-1.32-1.16-1.94-2.01-2.64c-1.53-1.25-3.13-2.42-4.78-3.5c-3.95-2.58-7.93-5.1-12.05-7.41c-8.9-4.99-17.99-9.61-27.38-13.6
			c-10.63-4.52-21.35-8.81-32.22-12.75c-4.97-1.8-9.94-3.61-14.9-5.43c-11.07-4.05-22.14-8.11-33.21-12.18
			c-5.21-1.92-10.38-3.96-15.49-6.13c-4.76-2.03-9.63-3.78-14.35-5.89c-6.95-3.1-13.82-6.35-20.63-9.76
			c-7.02-3.51-13.78-7.47-20.45-11.57c-6.34-3.89-12.37-8.28-18.22-12.92c-5.6-4.44-10.83-9.27-15.96-14.22
			c-2.14-2.07-3.94-4.43-6.05-6.52c-2.44-2.41-4.5-5.16-6.68-7.78c-3.49-4.2-6.57-8.73-9.76-13.17
			c-6.79-9.44-13.25-19.11-20.54-28.19c-3.05-3.8-6.25-7.44-9.53-11.03c-2.97-3.26-6.36-6.1-9.78-8.89
			c-4.07-3.33-8.48-6.15-13.11-8.66c-6.41-3.48-13.22-5.74-20.3-7.38c-5.51-1.28-11.09-1.87-16.7-2.01
			c-5.01-0.12-10.03,0.02-15.05,0.31c-6.18,0.35-12.23,1.32-18.21,2.67c-12.06,2.72-23.61,6.88-34.54,12.77
			c-6.3,3.39-12.39,7.07-18.21,11.21c-6.74,4.8-12.93,10.26-18.92,15.96c-3.47,3.3-6.52,6.97-9.48,10.75
			c-5.4,6.89-10.73,13.81-15.12,21.4c-5.02,8.7-10.01,17.4-14.23,26.53c-3.9,8.44-7.38,17.01-10,25.92
			c-1.55,5.27-2.4,10.66-2.69,16.13c-0.15,2.81,0.04,5.64-0.04,8.45c-0.09,2.86,0.6,5.58,1.34,8.28c1.7,6.15,5.86,10.65,10.7,14.37
			c5.08,3.9,11.13,5.58,17.56,5.29c4.55-0.21,9.06-0.86,13.39-2.45c5.14-1.89,10.16-4.06,15.13-6.38c3.99-1.86,8.03-3.65,12.13-5.25
			c5.09-1.99,10.17-4.01,15.38-5.72c6.29-2.06,12.6-4.03,18.96-5.83c3.51-0.99,7.11-1.6,10.64-2.49c2.71-0.69,5.44-1.56,8.21-1.84
			c4.39-0.44,8.63-1.61,12.99-2.16c5.8-0.73,11.59-1.61,17.42-1.98c6.07-0.39,12.15-0.69,18.25-0.59
			c7.61,0.12,15.23-0.19,22.81,0.57c2.72,0.27,5.45,0.33,8.17,0.68c1.88,0.24,3.69,0.91,5.55,0.99c3.66,0.16,7.26,0.55,10.84,1.32
			c2.21,0.47,4.42,0.92,6.63,1.42c4.81,1.09,9.68,1.85,14.49,2.91c2.57,0.57,4.98,1.77,7.65,2.02c0.44,0.04,0.89,0.24,1.29,0.46
			c1.35,0.73,2.82,1.13,4.28,1.54c4.24,1.2,8.36,2.75,12.51,4.2c3.08,1.08,6.09,2.37,9.14,3.53c4.48,1.7,8.91,3.55,13.19,5.67
			c5.71,2.82,11.58,5.34,17.05,8.66c3.24,1.96,6.61,3.69,9.85,5.68c4.4,2.71,8.67,5.61,12.98,8.45c0.95,0.63,2.26,0.7,2.93,1.69
			c0.72,1.05,1.7,1.73,2.74,2.35c3.12,1.88,5.75,4.4,8.65,6.57c2.85,2.13,5.35,4.71,8.48,6.47c0.44,0.24,0.58,0.68,0.67,1.14
			c-23.47,0-46.93,0-70.4,0c-1.22-2.09-3.36-3.01-5.32-4.15c-6.78-3.97-13.75-7.49-21.28-9.85c-7.65-2.4-15.47-3.76-23.46-4.26
			c-3.59-0.23-7.15,0.21-10.69,0.56c-6.58,0.65-13.04,2.08-19.36,4.11c-5.58,1.8-10.99,4.04-16.29,6.52
			c-3.03,1.42-6.03,2.91-8.98,4.5c-1.14,0.61-2.64,0.97-2.96,2.58C500.27,470.83,432.76,470.83,365.26,470.83z"/>
		<path class="st0" d="M746.51,470.83c-0.09-0.46-0.24-0.9-0.67-1.14c-3.13-1.75-5.63-4.34-8.48-6.47c-2.9-2.17-5.53-4.69-8.65-6.57
			c-1.04-0.63-2.02-1.3-2.74-2.35c-0.68-0.99-1.98-1.06-2.93-1.69c-4.31-2.84-8.58-5.74-12.98-8.45c-3.23-1.99-6.61-3.72-9.85-5.68
			c-5.47-3.32-11.34-5.84-17.05-8.66c-4.28-2.12-8.71-3.97-13.19-5.67c-3.05-1.16-6.06-2.45-9.14-3.53c-4.15-1.46-8.27-3-12.51-4.2
			c-1.46-0.41-2.93-0.81-4.28-1.54c-0.4-0.22-0.85-0.41-1.29-0.46c-2.67-0.26-5.08-1.46-7.65-2.02c-4.81-1.06-9.69-1.83-14.49-2.91
			c-2.21-0.5-4.42-0.95-6.63-1.42c-3.59-0.77-7.18-1.16-10.84-1.32c-1.86-0.08-3.66-0.75-5.55-0.99c-2.72-0.34-5.45-0.4-8.17-0.68
			c-7.58-0.76-15.21-0.45-22.81-0.57c-6.1-0.1-12.18,0.2-18.25,0.59c-5.83,0.37-11.62,1.26-17.42,1.98
			c-4.36,0.55-8.6,1.72-12.99,2.16c-2.76,0.28-5.5,1.15-8.21,1.84c-3.53,0.9-7.13,1.5-10.64,2.49c-6.37,1.8-12.68,3.77-18.96,5.83
			c-5.21,1.71-10.29,3.73-15.38,5.72c-4.1,1.6-8.14,3.39-12.13,5.25c-4.97,2.32-9.98,4.49-15.13,6.38
			c-4.33,1.59-8.84,2.25-13.39,2.45c-6.43,0.29-12.49-1.39-17.56-5.29c-4.84-3.71-9-8.22-10.7-14.37c-0.75-2.7-1.43-5.42-1.34-8.28
			c0.09-2.82-0.1-5.64,0.04-8.45c0.29-5.47,1.13-10.86,2.69-16.13c2.62-8.91,6.1-17.48,10-25.92c4.22-9.14,9.21-17.84,14.23-26.53
			c4.39-7.6,9.72-14.52,15.12-21.4c2.96-3.77,6.01-7.45,9.48-10.75c5.99-5.69,12.17-11.16,18.92-15.96
			c5.82-4.14,11.91-7.82,18.21-11.21c10.94-5.89,22.48-10.05,34.54-12.77c5.98-1.35,12.03-2.32,18.21-2.67
			c5.03-0.28,10.04-0.43,15.05-0.31c5.62,0.14,11.2,0.73,16.7,2.01c7.07,1.65,13.89,3.91,20.3,7.38c4.63,2.51,9.04,5.33,13.11,8.66
			c3.41,2.79,6.8,5.63,9.78,8.89c3.27,3.59,6.48,7.24,9.53,11.03c7.29,9.08,13.75,18.76,20.54,28.19c3.19,4.44,6.26,8.97,9.76,13.17
			c2.18,2.63,4.24,5.37,6.68,7.78c2.11,2.09,3.91,4.45,6.05,6.52c5.13,4.95,10.36,9.78,15.96,14.22
			c5.85,4.64,11.88,9.03,18.22,12.92c6.67,4.09,13.43,8.05,20.45,11.57c6.81,3.41,13.68,6.66,20.63,9.76
			c4.72,2.11,9.59,3.87,14.35,5.89c5.11,2.18,10.28,4.22,15.49,6.13c11.07,4.07,22.14,8.12,33.21,12.18
			c4.96,1.82,9.93,3.63,14.9,5.43c10.86,3.94,21.59,8.23,32.22,12.75c9.39,3.99,18.48,8.61,27.38,13.6
			c4.12,2.31,8.1,4.83,12.05,7.41c1.65,1.08,3.26,2.25,4.78,3.5c0.85,0.7,1.92,1.32,2.01,2.64
			C845.56,470.83,796.04,470.83,746.51,470.83z"/>
		<path class="st1" d="M1121.37,470.83c-0.03-1.36-1.09-1.92-2.01-2.58c-3.1-2.18-6.24-4.3-9.31-6.52
			c-5.95-4.32-11.9-8.64-17.79-13.05c-5.89-4.41-11.61-9.03-17.2-13.81c-3.81-3.26-7.55-6.58-11.3-9.89
			c-5.09-4.5-9.88-9.29-14.47-14.25c-4.47-4.82-8.82-9.77-12.72-15.12c-5.25-7.2-9.9-14.73-14.19-22.53
			c-3.24-5.88-5.87-12.02-8.13-18.31c-1.75-4.85-3.27-9.79-4.09-14.92c-0.25-1.56-0.61-3.13-1.04-4.65
			c-0.77-2.74-0.91-5.56-1.05-8.34c-0.21-4.33-0.02-8.68-0.1-13.02c-0.09-4.92,0.99-9.66,2.06-14.4
			c2.27-10.05,6.34-19.32,11.99-27.93c5.81-8.85,13.07-16.38,20.95-23.37c3.38-3,7.14-5.44,10.86-7.92
			c8.39-5.58,17.39-9.97,26.91-13.32c6.32-2.22,12.73-4.14,19.3-5.46c5.21-1.05,10.45-1.89,15.72-2.59
			c12.58-1.67,25.21-1.43,37.82-1.17c4.83,0.1,9.69,0.49,14.53,1.12c4.36,0.57,8.76,0.86,13.12,1.47
			c8.05,1.13,16.06,2.47,23.97,4.38c5.4,1.3,10.8,2.64,16.03,4.49c4.58,1.63,9.13,3.36,13.63,5.21c6.61,2.71,12.91,6.01,19.02,9.75
			c3.64,2.23,7.12,4.67,10.51,7.19c3.51,2.61,6.87,5.51,9.88,8.75c1.14,1.23,2.37,2.37,3.53,3.57c0.6,0.62,1.24,1.13,2.18,1.03
			c0,60.34,0,120.69,0,181.03c-3.35-5.47-5.74-11.42-8.23-17.29c-5.34-12.6-9.43-25.68-14.28-38.47
			c-3.23-8.53-6.68-16.98-11.03-25.03c-3.51-6.5-7.35-12.74-11.93-18.58c-4.89-6.25-10.8-11.31-17.08-15.99
			c-3.91-2.92-8.22-5.18-12.72-7.1c-8.15-3.46-16.46-5.51-25.44-4.74c-4.68,0.4-9.16,1.23-13.52,2.91
			c-5.82,2.25-10.94,5.57-15.35,9.99c-6,6.02-10.28,13.11-13.41,20.98c-2.84,7.15-4.17,14.57-4.24,22.23
			c-0.02,2.74-0.09,5.49,0.04,8.22c0.13,2.72,0.24,5.48,0.78,8.14c1.54,7.63,4.15,14.88,7.82,21.79
			c3.26,6.12,6.69,12.08,10.84,17.67c4.32,5.81,9.11,11.2,14.03,16.47c3.63,3.89,7.49,7.56,11.46,11.13c3.22,2.9,6.66,5.53,9.82,8.5
			c1.54,1.45,3.52,2.44,4.67,4.31C1168.61,470.83,1144.99,470.83,1121.37,470.83z"/>
		<path class="st1" d="M353.37,150.83c0.93,7.72,1.07,15.48,0.84,23.24c-0.11,3.79-0.31,7.63-1.03,11.33
			c-0.72,3.71-1.56,7.42-2.27,11.14c-1.53,7.99-4.46,15.44-8.14,22.64c-2.02,3.96-4.89,7.31-7.54,10.83
			c-2.47,3.28-5.45,6.11-7.99,9.33c-1.38,1.75-3.36,2.84-4.88,4.45c-5.32,5.65-11.23,10.69-17.16,15.67
			c-4.93,4.14-10.05,8.07-15.5,11.55c-2.88,1.84-5.58,3.96-8.5,5.74c-4.8,2.92-9.48,6.05-14.48,8.63c-3.03,1.57-5.91,3.45-8.93,5.04
			c-2.68,1.42-5.46,2.63-8.19,3.95c-5.81,2.82-11.74,5.35-17.7,7.85c-5.82,2.45-11.71,4.73-17.68,6.78
			c-6.54,2.25-13.12,4.37-19.84,6.1c-4.64,1.19-9.34,2.13-13.99,3.25c-3.09,0.74-6.27,1.16-9.43,1.59
			c-6.24,0.86-12.49,1.55-18.79,1.98c-7.85,0.53-15.69,0.45-23.51,0.21c-6.13-0.19-12.26-0.8-18.37-1.58
			c-11.2-1.42-22.13-3.95-32.93-7.14C66,310.07,55.15,305.52,44.7,300c-8.76-4.63-16.97-10.16-24.8-16.21
			c-6.15-4.76-11.5-10.41-16.95-15.93c-0.83-0.84-1.63-1.64-2.95-1.36c0-38.55,0-77.1,0-115.66c11.12,0,22.25,0,33.37,0
			c0.12,0.36,0.22,0.73,0.36,1.08c3.02,7.31,5.6,14.79,8.13,22.28c1.15,3.38,2.02,6.87,3.34,10.18c1.29,3.25,2.36,6.57,3.61,9.83
			c1.8,4.68,3.69,9.33,5.73,13.91c1.3,2.91,2.82,5.74,4.44,8.49c3.23,5.5,6.63,10.86,11.03,15.59c3.49,3.74,7.12,7.29,11.17,10.39
			c7.57,5.77,16,10,24.94,13.16c8.26,2.92,16.76,4.87,25.51,5.83c5.82,0.64,11.65,0.92,17.49,1.24c2.06,0.11,4.06-0.54,6.13-0.44
			c4.35,0.2,8.65-0.5,12.94-1.05c6.79-0.88,13.45-2.4,20.05-4.25c8.46-2.38,16.62-5.5,24.53-9.25c10.55-5,20.44-11.12,29.53-18.5
			c4.37-3.55,8.61-7.26,12.69-11.1c5.2-4.9,10.27-9.95,15.06-15.28c4.93-5.49,9.75-11.05,14.19-16.95
			c5.39-7.15,10.06-14.69,13.39-23c1.55-3.87,3.02-7.83,2.71-12.14C318.02,150.83,335.7,150.83,353.37,150.83z"/>
		<path class="st0" d="M300.34,150.83c0.31,4.32-1.16,8.27-2.71,12.14c-3.33,8.31-8.01,15.85-13.39,23
			c-4.45,5.9-9.26,11.46-14.19,16.95c-4.79,5.33-9.86,10.38-15.06,15.28c-4.08,3.84-8.32,7.55-12.69,11.1
			c-9.09,7.38-18.97,13.5-29.53,18.5c-7.91,3.75-16.07,6.88-24.53,9.25c-6.6,1.86-13.27,3.37-20.05,4.25
			c-4.29,0.56-8.59,1.25-12.94,1.05c-2.08-0.1-4.07,0.55-6.13,0.44c-5.84-0.31-11.66-0.6-17.49-1.24
			c-8.75-0.96-17.24-2.91-25.51-5.83c-8.94-3.16-17.37-7.39-24.94-13.16c-4.05-3.09-7.68-6.64-11.17-10.39
			c-4.41-4.73-7.8-10.09-11.03-15.59c-1.62-2.75-3.14-5.58-4.44-8.49c-2.04-4.58-3.93-9.23-5.73-13.91
			c-1.25-3.26-2.32-6.58-3.61-9.83c-1.32-3.31-2.2-6.8-3.34-10.18c-2.54-7.49-5.11-14.97-8.13-22.28c-0.14-0.35-0.24-0.72-0.36-1.08
			C122.36,150.83,211.35,150.83,300.34,150.83z"/>
		<path class="st2" d="M1069.26,150.83c-0.01,1.05-0.46,1.88-1.14,2.66c-2.95,3.37-5.86,6.8-8.83,10.15
			c-1.31,1.48-2.91,2.69-4.31,4.06c-2.07,2.02-4.27,3.89-6.31,5.91c-4.13,4.07-9.08,7.18-13.05,11.41c-0.56,0.6-1.34,1-2.05,1.44
			c-2.97,1.86-5.69,4.05-8.37,6.3c-0.35,0.29-0.65,0.68-1.04,0.89c-6.58,3.53-12.44,8.2-18.95,11.87
			c-7.95,4.49-15.92,8.93-24.15,12.87c-4.79,2.29-9.66,4.41-14.61,6.37c-3.6,1.43-7.2,2.88-10.78,4.38
			c-3.65,1.53-7.47,2.6-11.19,3.94c-2.92,1.05-5.84,2.14-8.86,2.89c-0.67,0.17-1.31,0.37-2,0.36c-0.7-0.01-1.38,0.11-2,0.4
			c-4.25,1.95-8.88,2.51-13.36,3.57c-1.32,0.31-2.7,0.45-4.01,0.87c-1.24,0.4-2.49,0.69-3.81,0.65c-0.38-0.01-0.79-0.02-1.13,0.11
			c-4.94,1.88-10.26,1.09-15.28,2.22c-4.3,0.97-8.63,0.52-12.91,0.96c-6.24,0.64-12.47,0.41-18.69,0.23
			c-4.31-0.13-8.64-0.41-12.94-0.81c-3.85-0.36-7.76-0.69-11.49-1.52c-4.51-1.01-9.28-0.85-13.58-2.82
			c-3.19,0.07-5.94-1.69-9.04-2.14c-2.68-0.39-5.25-1.53-7.87-2.33c-3.28-0.99-6.41-2.42-9.66-3.46
			c-5.76-1.84-11.06-4.64-16.46-7.27c-4.85-2.37-9.57-5.03-14.13-7.88c-2.73-1.71-5.56-3.43-7.99-5.64
			c-0.73-0.66-1.52-1.28-2.35-1.81c-4.67-2.93-8.47-6.91-12.59-10.49c-2.47-2.14-4.68-4.55-6.97-6.86
			c-5.86-5.92-10.82-12.53-15.61-19.31c-2.72-3.85-5.44-7.7-7.73-11.84c-0.63-1.13-1.23-2.28-1.83-3.42
			c-0.85-1.62-1.61-3.29-2.93-4.6c-0.66-0.65-0.81-1.44-0.7-2.31c30.32,0,60.65,0,90.97,0c0.12,0.77,0.39,1.52,0.94,2.04
			c2.56,2.39,4.54,5.36,7.19,7.63c2.18,1.87,4.34,3.78,6.65,5.53c4.39,3.33,9,6.21,13.97,8.55c7.87,3.71,15.98,6.64,24.54,8.39
			c3.17,0.65,6.24,1.69,9.53,1.89c3.56,0.22,7.09,0.96,10.64,1.05c6.15,0.15,12.31,0.24,18.47-0.22c5.32-0.39,10.6-0.85,15.76-2.22
			c0.44-0.12,0.9-0.16,1.35-0.17c4.3-0.09,8.41-1.35,12.42-2.62c3.08-0.98,6.28-1.58,9.31-2.87c1.93-0.82,3.79-1.86,5.82-2.52
			c4.78-1.55,9.39-3.58,13.75-6.05c4.28-2.42,8.55-4.85,12.72-7.48c4.38-2.77,8.46-5.92,12.72-8.84c0.75-0.52,1.15-1.19,1.12-2.11
			C1007.39,150.83,1038.32,150.83,1069.26,150.83z"/>
		<path class="st0" d="M1192.23,470.83c-1.15-1.88-3.12-2.86-4.67-4.31c-3.15-2.97-6.6-5.6-9.82-8.5
			c-3.97-3.57-7.83-7.24-11.46-11.13c-4.92-5.27-9.71-10.65-14.03-16.47c-4.15-5.59-7.59-11.54-10.84-17.67
			c-3.67-6.91-6.28-14.16-7.82-21.79c-0.54-2.66-0.65-5.42-0.78-8.14c-0.13-2.74-0.06-5.48-0.04-8.22
			c0.07-7.67,1.4-15.08,4.24-22.23c3.13-7.86,7.41-14.96,13.41-20.98c4.41-4.42,9.53-7.74,15.35-9.99
			c4.35-1.68,8.84-2.52,13.52-2.91c8.98-0.76,17.3,1.28,25.44,4.74c4.51,1.91,8.81,4.18,12.72,7.1c6.28,4.68,12.19,9.74,17.08,15.99
			c4.57,5.84,8.42,12.08,11.93,18.58c4.35,8.05,7.8,16.49,11.03,25.03c4.84,12.79,8.93,25.86,14.28,38.47
			c2.49,5.88,4.87,11.82,8.23,17.29c0,8.38,0,16.76,0,25.14C1250.74,470.83,1221.49,470.83,1192.23,470.83z"/>
		<path class="st2" d="M31.09,470.83c-0.08-1.44,0.92-2.25,1.91-2.92c7.22-4.89,13.26-11.14,19.6-17.05
			c7.34-6.84,14.11-14.24,21.26-21.27c5.21-5.12,10.45-10.21,15.79-15.2c3.05-2.85,6.15-5.7,9.52-8.14c3.15-2.28,6.19-4.64,9.1-7.21
			c1.14-1.01,2.77-1.18,4.02-2.13c6.35-4.84,13.6-8.08,20.89-11.06c5.46-2.23,11.28-3.55,17.22-4.27c4.24-0.51,8.46-0.86,12.72-0.87
			c6.41-0.01,12.7,0.85,18.99,2.01c7.77,1.43,15.09,4.14,22.24,7.34c3.32,1.49,6.48,3.35,9.61,5.22c1.44,0.86,3.11,1.26,4.41,2.33
			c2.06,1.69,4.36,3.01,6.56,4.48c5,3.35,9.39,7.42,13.88,11.4c5.84,5.18,10.82,11.12,16.05,16.83c3.31,3.62,6.3,7.59,9.21,11.6
			c2.14,2.95,4.46,5.78,6.3,8.94c1.27,2.18,2.9,4.13,4.1,6.29c2.27,4.12,5.15,7.9,6.85,12.33c0.16,0.42,0.18,0.89,0.27,1.33
			c-19.96,0-39.92,0-59.89,0c-0.27-1.4-1.04-2.5-1.98-3.52c-3.88-4.22-8.39-7.36-14.06-8.81c-4.47-1.14-8.9-1.57-13.47-0.74
			c-6.87,1.25-12.76,4.72-18.64,8.18c-1.16,0.69-2.15,1.68-3.2,2.55c-0.72,0.6-1.28,1.31-1.22,2.33
			C123.12,470.83,77.1,470.83,31.09,470.83z"/>
		<path class="st0" d="M976.46,150.83c0.03,0.92-0.37,1.59-1.12,2.11c-4.26,2.91-8.34,6.07-12.72,8.84
			c-4.17,2.63-8.44,5.06-12.72,7.48c-4.37,2.47-8.97,4.51-13.75,6.05c-2.04,0.66-3.89,1.7-5.82,2.52c-3.03,1.29-6.22,1.89-9.31,2.87
			c-4.01,1.27-8.11,2.53-12.42,2.62c-0.45,0.01-0.92,0.05-1.35,0.17c-5.17,1.37-10.44,1.83-15.76,2.22
			c-6.17,0.45-12.32,0.37-18.47,0.22c-3.55-0.09-7.09-0.84-10.64-1.05c-3.29-0.2-6.35-1.24-9.53-1.89
			c-8.56-1.75-16.67-4.68-24.54-8.39c-4.97-2.34-9.58-5.22-13.97-8.55c-2.31-1.75-4.46-3.66-6.65-5.53
			c-2.65-2.28-4.63-5.24-7.19-7.63c-0.56-0.52-0.82-1.27-0.94-2.04C858.51,150.83,917.49,150.83,976.46,150.83z"/>
		<path class="st0" d="M567.77,470.83c0.33-1.61,1.82-1.97,2.96-2.58c2.95-1.58,5.95-3.08,8.98-4.5c5.3-2.49,10.71-4.72,16.29-6.52
			c6.31-2.03,12.77-3.46,19.36-4.11c3.54-0.35,7.1-0.78,10.69-0.56c7.99,0.51,15.81,1.86,23.46,4.26c7.53,2.36,14.5,5.88,21.28,9.85
			c1.96,1.15,4.1,2.06,5.32,4.15C640,470.83,603.89,470.83,567.77,470.83z"/>
		<path class="st0" d="M169.14,470.83c-0.06-1.02,0.51-1.73,1.22-2.33c1.05-0.88,2.03-1.87,3.2-2.55
			c5.88-3.47,11.76-6.93,18.64-8.18c4.57-0.83,9-0.4,13.47,0.74c5.67,1.44,10.17,4.59,14.06,8.81c0.94,1.02,1.72,2.12,1.98,3.52
			C204.19,470.83,186.67,470.83,169.14,470.83z"/>
		<path class="st1" d="M554.06,150.83c-0.35,1.09-1.36,1.12-2.22,1.3c-6.02,1.29-12.12,2.03-18.23,2.71
			c-0.68,0.08-1.37,0.08-2.05,0.08c-4.42,0.02-8.83,0-13.25,0.04c-3.35,0.03-6.66-0.63-9.98-0.77c-4.89-0.21-9.61-1.44-14.42-2.07
			c-1.17-0.15-2.65,0.14-3.39-1.3C511.7,150.83,532.88,150.83,554.06,150.83z"/>
	</g>
</g>
<g id="Layer_3">
	<path class="st1" d="M37.68,162.89c-1.13-0.11-4.71-13.24-5.13-14.48c-6.38-18.78-11.29-38.25-12.8-58.08
		c-1.47-19.32,1.44-37.53,7.34-55.92C31.05,22.02,35.84,9.55,37.66-3.4C18.82-3.71-0.01-4.22-18.84-4.65
		c0,0,10.84,157.94,10.84,157.94l24.26,7.48C16.26,160.77,37.64,162.89,37.68,162.89z"/>
	<path class="st1" d="M300.39,167.74c0.1,0.22-3.57,3.94-3.82,4.23c-2.87,3.28-5.71,6.59-8.55,9.9
		c-6.33,7.39-12.66,14.79-18.98,22.2c7.02-8.24,11.57-19.51,15.99-29.32c3.36-7.46,6.27-15.15,8.22-23.11
		c2.09-8.54,1.94-16.64,0.98-25.36c-0.9-8.22-2.01-16.44-5.96-23.84c-4.39-8.23-12.72-13.67-20.2-18.83
		c-6.74-4.66-13.15-9.81-18.87-15.7c-14.9-15.34-22.58-37.25-18.29-58.45c0.29-1.42,4.14-17.73,5.99-17.73c0,0,70.97,0,70.97,0
		c0.11,3.22,0.19,6.45,0.22,9.68c0.07,7.68-3.88,14.6-3.76,22.13c0.06,3.64,1.4,7.13,2.83,10.49c6.57,15.4,15.96,28.43,24.89,42.43
		c9.6,15.04,14.67,32.88,17.98,50.25c1.92,10.07,3.16,20.27,4.02,30.49c0.63,7.5-7.27,15.08-11.6,20.87
		c-5.48-3.55-10.96-7.1-16.44-10.64c-4.45-2.88-8.91-5.77-13.36-8.65c-2.84-1.84-8.18,7.23-9.98,8.8c-0.58,0.5-1.47,0.97-2.05,0.46
		C300.52,167.95,300.45,167.85,300.39,167.74z"/>
	<path class="st1" d="M1126.71,460.39c15.83-3.27,33.09-4.67,48.64,0.7c13.97,4.82,24.23,15.96,32.48,27.79
		c9.22,13.23,17.46,27.48,28.94,38.9c10.69,10.63,23.34,19.47,36,27.58c51.57,33.05,79.61,12.69,107.35,35.1
		c50.75,40.98,39.64,175.85-15.48,200.77c-23.06,10.43-51.02,0.35-94.97-15.48c-20.49-7.38-40.68-15.73-57.38-30.01
		c-15.17-12.96-27.8-29.38-34.12-48.46c-10.19-30.77-3.29-64.29-5.31-96.64c-1.13-18.02-5.39-35.78-11.42-52.76
		c-6.26-17.62-14.48-34.53-24.12-50.54c-3.7-6.14-7.62-12.15-11.76-18.01c-2.26-3.2-4.44-6.47-6.88-9.54
		c-2.58-3.25-5.28-5.67-8.63-8.04C1110.05,461.74,1126.71,460.39,1126.71,460.39z"/>
	<path class="st1" d="M483.61-23.74c-2.05,0.14-5.11,2.41-6.93,3.28c-17.39,8.23-35.64,13.52-50.22,26.75
		c-13.81,12.53-23.82,29.39-27.39,47.76c-13.65,70.16,61.58,120.19,123.25,124.5c10.46,0.73,21.01,0.3,31.35-1.45
		c25.19-4.26,46.78-17.48,62.18-37.81c16.72-22.07,19.04-50.8,33.42-74.07c20.06-32.47,59.58-47.23,91.48-64.96
		c2.18-1.21,13.37-9.28,15.38-8.51c0,0-54.71-21.16-54.71-21.16S644.85-4.68,644.78-4.65c-25.37,11.09-46.46,30.14-54,57.51
		c-2.82,10.24-3.62,20.91-5.67,31.34c-2.04,10.42-5.53,20.95-12.72,28.76c-6.82,7.4-16.43,11.72-26.25,13.89
		c-28.77,6.37-65.99-11.05-68.6-43.65c-1.2-14.92,9.88-28.28,22.54-36.26c12.66-7.98,27.31-12.38,40.03-20.29
		c13.09-8.14,20.45-18.82,23.07-33.76c0.52-2.98,2.17-22.17,4.6-22.33C567.77-29.42,483.63-23.74,483.61-23.74z"/>
	<path class="st1" d="M352.35,447.37c2.16,4.57,11.72,24.65,13.51,27.97c2.51,4.66,5.67,8.97,9.29,12.83
		c7.29,7.78,16.48,13.77,26.5,17.41c18.88,6.87,39.7,5.8,59.55,2.7c37-5.77,72.95-18.32,105.44-36.96
		c6.95-3.99,13.79-8.23,21.12-11.51c7.45-3.33,18.11-5.07,25.96-6.69c-1.68,0.56-7.65,0.8-9.43,0.82c-2.03,0.03-4.07,0.06-6.1,0.11
		c-10.66,0.27-21.33,0.53-31.99,0.8c-14.84,0.37-29.68,0.74-44.52,1.11c-16.61,0.41-33.23,0.83-49.84,1.24
		c-15.99,0.4-31.98,0.8-47.97,1.2c-12.97,0.32-25.93,0.65-38.9,0.97c-7.54,0.19-15.1,0.24-22.64,0.56c-0.35,0.01-1.3-0.15-1.59,0.04
		C360.62,460.05,352.28,447.23,352.35,447.37z"/>
	<path class="st1" d="M723.04,452.62c6.28,2.34,35.98,28.49,40.89,32.89c15.02,13.44,32.16,25.84,51.36,32.26
		c14.46,4.84,29.77,7.4,44.96,8.54c6.31,0.48,12.74,0.42,18.92-1.12c10.16-2.53,19.85-9.01,26.8-16.76
		c3.66-4.08,6.24-8.87,4.6-14.43c-0.82-2.77-2.36-5.27-3.92-7.71c-2.01-3.14-4.08-6.23-6.22-9.29c-1.07-1.53-2.15-3.04-3.25-4.55
		c-0.54-0.73-1.84-3.25-2.89-3.25c0,0,121.44,0.73,121.44,0.73c2.54,1.4,4.6,3.85,6.64,5.85c7.37,7.24,15.4,13.74,22.87,20.86
		c9.09,8.76,17.57,18.36,23.82,29.39c4.59,8.11,7.87,16.97,9.08,26.24c1.23,9.43,0.1,19.28-4.05,27.83
		c-4.26,8.77-11.5,15.84-19.74,21.06c-8.23,5.21-17.45,8.68-26.78,11.51c-38.37,11.67-80.67,12.95-120.02,6.01
		c-14.54-2.57-29.07-6.01-42.62-12c-20.05-8.87-38.49-20.96-56.5-33.45c-19.95-13.83-40.05-27.47-59.93-41.4
		c-12.83-8.99-26.29-18.08-38.72-27.98c-3.87-3.08-7.58-6.35-11.18-9.74c-3.63-3.41-7.16-6.94-10.62-10.53
		c-3.45-3.56-6.84-7.18-10.23-10.8c-1.42-1.51-2.84-3.02-4.26-4.53c0.64,0.59,1.97,0.6,2.77,0.7c1.46,0.18,2.94,0.27,4.41,0.34
		c0.98,0.05,1.96,0.08,2.94,0.1c7,0.16,14,0.32,21,0.48c12.87,0.29,26.82-0.92,39.58,0.9C744.92,470.89,722.34,452.36,723.04,452.62
		z"/>
	<path class="st2" d="M903.74-14.45c-16.08,1.24-32.2,3.91-48.11,6.46c-25.58,4.1-51.49,9.58-74.73,21.45
		c-23.54,12.02-41.51,30.95-54.56,53.77c-8.56,14.98-14.88,31.2-19.35,47.85c-5.53,20.59-7.38,41.68,4,60.68
		c6.53,10.91,15.8,19.92,25.61,28c40.53,33.39,92.49,52.35,144.92,53.83c29,0.82,59.47-1.82,86.42-13.14
		c1.82-0.76,3.62-1.56,5.41-2.4c24.32-11.4,44.69-30.69,64.16-48.88c19.46-18.17,37.52-38.36,49.85-62.14
		c0.74-1.42,1.46-2.86,2.15-4.31c8.9-18.52,13.99-38.5,20.52-57.91c6.48-19.29,15.19-35.33,30.67-48.95
		c15.47-13.61,39.06-28.13,60.35-28.13c6.71,0,83.1-9.29,83.1-9.29s-175.48-3.1-175.48-3.1c-5.58,2.13-11.16,4.3-16.72,6.49
		c-6.39,2.51-13.64,4.17-19.56,7.67c-5.89,3.48-9.92,9.57-13.35,15.32c-18.52,30.98-32.2,64.67-50.85,95.57
		c-13.96,23.13-34.14,45.05-61.27,51.8c-18.18,4.53-37.28,1.62-55.82-1.07c-22.99-3.34-47.35-6.86-65.27-21.64
		c-32.91-27.15-27.98-80.98,6.14-104.85c18.04-12.62,38.99-16.19,59.71-22c12.54-3.52,25.22-7.24,37.81-10.86
		c4.08-1.17,9.73-4.03,14.02-4.03C943.48-8.26,903.74-14.45,903.74-14.45z"/>
	<path class="st2" d="M-18.79,484.18c0.28-3.77,18.14-9.29,21.18-10.68c8.89-4.06,17.67-8.5,25.59-14.27
		c12.17-8.86,22.07-20.97,32.58-31.65c9.43-9.59,19.28-18.87,30.52-26.33c27.45-18.22,61.51-24.78,93.86-19.13
		c48.09,8.4,82.37,47.39,103.29,89.14c19.46,38.82,31.1,83.63,26.24,127.26c-2.74,24.6-12.03,49.07-29.44,66.67
		c-19.32,19.53-46.13,28.49-70.44,40.12c-25.13,12.02-50,24.77-73.49,39.79c-23.58,15.08-48.82,32.14-63.07,56.89
		c-17.87,31.04,11.33,82.76,16.8,116.47c1.84,11.35-22.69,7.8-26.98,18.47c-5.89,14.62-19.09,22.35-31.01,31.45
		c-14.2,10.84-27.72,22.49-42.36,32.79c-3.98,2.8-7.99,5.54-12.04,8.23c-2.02,1.34-4.06,2.68-6.1,3.99
		c-1.31,0.85-4.64,3.91-6.15,3.91c-0.16,0.1-0.32,0.2-0.48,0.3c-2.97,1.85-6.88,4.97-10.5,5.37c-2.25,0.25-2.05-21.84-2.06-23.29
		c-0.15-20.67,0.48-41.36,1.13-62.02c0.92-29.23,2.12-58.46,3.41-87.68c1.48-33.43,3.09-66.85,4.78-100.26
		c1.68-33.26,3.44-66.52,5.25-99.77c1.56-28.74,3.16-57.47,4.8-86.21c1.13-19.86,2.28-39.71,3.44-59.57
		C-19.63,497.5-19.28,490.84-18.79,484.18z"/>
	<path class="st0" d="M-27.89,643.04c9.3-3.72,4.67-5.85,11.37-0.97c3.64,2.65,35.23-7.3,39.71-7.79c3.21-0.35,6.1-2.02,8.82-3.76
		c25.02-16.03,39.99-41.82,51.66-68.4c11.93-27.18,20.63-58.97,41.06-81.33c6.89-7.54,15.95-13.57,26.09-14.84
		c11.32-1.42,22.52,3.16,32.49,8.7c36.9,20.49,66.28,60.8,59.75,104.7c-2.68,18.04-11.44,34.83-23.15,48.81
		c-11.71,13.98-26.3,25.3-41.69,35.09c-17.68,11.24-36.5,20.56-55.72,28.85c-18.59,8.02-38.09,14.11-55.51,24.61
		c-25.25,15.23-47.29,39.46-59.24,66.55c-6.57,14.88-9.27,32.03-4.29,47.51c2.91,9.04,8.26,17.08,11.89,25.84
		c3.64,8.77,5.43,19.11,1.1,27.55c-5.74,11.2-19.62,15.84-30.9,19.06c-14.4,4.11-41.62-159.91-39.76-164.09
		c13.23-29.77,21.07-63,31.01-93.99c2.36-7.35,2.81-15.65,6.25-22.63C-16.05,620.71-28.98,643.48-27.89,643.04z"/>
	<path class="st2" d="M618.84,908.39c0,0,22.45,4.65,37.16,3.1c52.26-5.5,95.44-40.8,117.44-87.43
		c7.04-14.92,12.82-31.09,17.37-46.87c5.19-18.01,7.17-36.49,13.82-54.21c9.46-25.18,26.44-47.7,50.48-60.5
		c28.01-14.92,61.71-15.46,92.62-13.98c25.81,1.24,51.59,3.98,76.96,8.99c29.81,5.88,61.08,12.43,85.05,32.46
		c16.28,13.6,27.92,34.1,26.58,55.27c-1.22,19.34-12.79,36.54-26.16,50.56c-13.37,14.02-28.92,25.96-41.19,40.96
		c-6.46,7.89-12.09,16.96-13.33,27.08c-2.79,22.82,15.17,42.15,27.73,59.03c1.16,1.56,6.99,11.8,8.5,11.88
		C1091.87,934.71,618.84,908.39,618.84,908.39z"/>
	<path class="st0" d="M742.71,920.15c10.39,3.32,22.03,1.48,32.06-2.69c38.02-15.8,48.78-52.88,58.12-87.3
		c6.26-23.08,13.81-48.93,31.32-67.09c23.12-23.99,59.61-31.48,92.95-31c25.01,0.36,82.03,3.91,89.84,32.34
		c3.06,11.16-3.79,22.53-11.59,31.47c-7.04,8.07-14.94,16.03-23.45,22.76c-8.65,6.84-18.18,12.55-21.44,23.36
		c-2.45,8.12-0.66,16.8,1.9,24.89c5.01,15.85,22.85,69.01-12.17,66.98c-10.92-0.64-21.84-1.25-32.76-1.88
		c-41.76-2.4-83.51-4.8-125.27-7.19C795.7,923.28,769.21,921.66,742.71,920.15z"/>
	<path class="st1" d="M275.87,920c0,0-128.7-0.7-134.45-8c-5.43-6.89-2.41-15.87-0.09-23.18c2.99-9.46,5.67-19.01,8.37-28.55
		c5.5-19.41,11.06-38.9,19.33-57.36c13.68-30.53,36.71-59.17,68.73-68.86c22.3-6.75,46.37-3.6,69.04,1.74
		c22.68,5.34,45.01,12.84,68.22,14.75c23.22,1.91,48.22-2.57,65.39-18.31c21.45-19.65,25.78-51.26,29.21-80.15
		c4.98-41.89,18.97-84.47,61.94-100.9c49-18.74,95.73,14.17,135.12,39.66c25.97,16.81,52.85,34.62,71.57,59.74
		c18.18,24.39,19.79,58.8,16.07,88.04c-2.54,19.96-10.11,39.87-24.52,53.92c-12.35,12.03-28.7,18.92-44.77,25.17
		c-18.65,7.26-37.51,14.04-56.74,19.6c-27.59,7.98-61.5,6.78-80.25,32.4c-5.63,7.7-9.83,16.29-14.13,24.77
		c-1.49,2.95-7.69,19.24-11.64,19.34C522.29,913.81,275.87,920,275.87,920z"/>
	<path class="st0" d="M530.83,673.97c-0.38-9.62-0.82-19.3,1.52-28.87c4.85-19.86,20.84-35.17,41.7-36.54
		c12.69-0.84,25.2,3.67,36.26,9.95c15.38,8.73,27.68,21.62,37.44,36.24c11.32,16.96,22.74,37.14,22.9,58.14
		c0.15,19.17-10.47,37.85-25.83,48.98c-33.66,24.4-81.59,19.04-120.68,23.9c-20.77,2.58-41.65,7.56-59.49,18.49
		c-16.89,10.36-30.37,25.7-40.33,42.83c-14.94,25.7-21.83,54.96-28.7,83.6c-0.34,1.43-47.77-1.29-52.34-1.4
		c-18.37-0.44-36.73-0.86-55.1-1.23c-10.98-0.23-21.96-0.44-32.94-0.6c-4.02-0.06-8.04-0.18-12.06-0.13
		c-12.68,0.15-19.77-11.55-25.79-21.36c-8.03-13.08-12.74-28.21-13.39-43.55c-1.24-29.27,12.3-58.33,37.41-74.14
		c51.84-32.63,113.84-2.92,169.93-9.95c20.44-2.56,39.33-11.08,56.9-21.48c12.62-7.47,25.54-16.02,37.33-24.77
		c9.51-7.06,19.9-17.08,23.25-28.84C531.57,693.65,531.23,683.84,530.83,673.97z"/>
</g>
</svg>
